inDegrees=yes
name=ik_S56_A12_T02
DataType=double
version=3
OpenSimVersion=4.3-2021-08-27-4bc7ad9
endheader
time	pelvis_tilt	pelvis_list	pelvis_rotation	pelvis_tx	pelvis_ty	pelvis_tz	hip_flexion_r	hip_adduction_r	hip_rotation_r	knee_angle_r	knee_angle_r_beta	ankle_angle_r	subtalar_angle_r	mtp_angle_r	hip_flexion_l	hip_adduction_l	hip_rotation_l	knee_angle_l	knee_angle_l_beta	ankle_angle_l	subtalar_angle_l	mtp_angle_l	lumbar_extension	lumbar_bending	lumbar_rotation	arm_flex_r	arm_add_r	arm_rot_r	elbow_flex_r	pro_sup_r	wrist_flex_r	wrist_dev_r	arm_flex_l	arm_add_l	arm_rot_l	elbow_flex_l	pro_sup_l	wrist_flex_l	wrist_dev_l
8.439999999999909	-4.152039060541128	1.122501028915808	26.58510550651232	0	0.9399999999999999	0	27.72238646613376	-9.007096989868716	-8.112657908930116	31.51440099821347	0.5500300592126127	0	0	0	27.72238646613376	-9.007096989868716	-8.112657908930116	31.51440099821347	0.5500300592126127	0	0	0	-3.139637226195675	3.341373412426698	6.154513093213676	9.110331879571337	-12.70288186694985	-3.503035618839419	8.042563899912745	117.5584566115	0	0	111.2142227282716	0.6743226249781729	24.19588462813471	38.87704012139168	34.86454625196311	0	0
8.459999999999908	-4.149007991373053	1.198474275786869	26.38209946970487	0	0.9399999999999999	0	27.72805150239175	-9.008176960043539	-8.113974891300131	31.52000270225408	0.5501278273918435	0	0	0	27.72805150239175	-9.008176960043539	-8.113974891300131	31.52000270225408	0.5501278273918435	0	0	0	-3.103202294526095	3.407728652369314	6.162642277713998	9.039771641109086	-12.86185696562309	-3.994276943896424	7.825862937163983	117.8829026648491	0	0	111.8556849196563	0.9786178806064569	24.2105822720094	38.34153596606563	34.83478046063932	0	0
8.479999999999908	-4.147274154664292	1.293459723267689	26.19116247273251	0	0.9399999999999999	0	27.73429559513803	-9.009365143218789	-8.115425000610662	31.52618315974349	0.5502356967243133	0	0	0	27.73429559513803	-9.009365143218789	-8.115425000610662	31.52618315974349	0.5502356967243133	0	0	0	-3.059754133208741	3.491855847180208	6.168664719653138	8.962362014057726	-13.03454818208562	-3.80992842204649	7.507960844189962	117.7623615133662	0	0	112.317209512587	1.313576134649966	23.79484483486504	37.79427730644147	34.70435051121758	0	0
8.499999999999908	-4.13715270140624	1.353615156296912	25.9964403232268	0	0.9399999999999999	0	27.74321883459104	-9.011066103837308	-8.117499937245219	31.53499478616129	0.5503894886177596	0	0	0	27.74321883459104	-9.011066103837308	-8.117499937245219	31.53499478616129	0.5503894886177596	0	0	0	-3.025206235947326	3.538936172010998	6.227038994761868	8.877089449891356	-13.09112314163415	-4.794265556548976	7.195512461813866	118.8445499942426	0	0	112.727400385193	1.759817369936617	23.26115319047615	37.29128106300403	34.38452935025605	0	0
8.519999999999907	-4.121044959427772	1.421917400069311	25.84583944501804	0	0.9399999999999999	0	27.75015770497828	-9.012383383263968	-8.119109542787918	31.54186616793339	0.5505094168538442	0	0	0	27.75015770497828	-9.012383383263968	-8.119109542787918	31.54186616793339	0.5505094168538442	0	0	0	-2.981763391565187	3.591505704095767	6.261816682017987	8.805975495089312	-13.23477387669337	-4.667413657732677	6.871975819406925	118.9547653200618	0	0	113.0747040726377	2.124690965674005	22.68839052365805	36.77404142069339	34.76891438128453	0	0
8.539999999999907	-4.107968491846546	1.47753615654075	25.72602096665539	0	0.9399999999999999	0	27.75617833016108	-9.013524966089683	-8.120505270900733	31.54783069632673	0.5506135175126368	0	0	0	27.75617833016108	-9.013524966089683	-8.120505270900733	31.54783069632673	0.5506135175126368	0	0	0	-2.946363718490559	3.634684418423525	6.289041895107734	8.751260296965352	-13.18994665192929	-4.662710242083325	6.84431166352067	119.0605162187768	0	0	113.3534011197786	2.429175556064657	22.25387236828451	36.33923319108833	35.40197348558556	0	0
8.559999999999906	-4.09401742258743	1.533527996234833	25.61301325072466	0	0.9399999999999999	0	27.76208825318594	-9.014645608366566	-8.12187554589957	31.5536817986215	0.5507156385125515	0	0	0	27.76208825318594	-9.014645608366566	-8.12187554589957	31.5536817986215	0.5507156385125515	0	0	0	-2.909614720922383	3.678851884522331	6.293114629379035	8.737102088631081	-13.28189854411489	-4.658979373780403	6.541416497590193	119.2498090299751	0	0	113.5898457277419	2.714326682352617	22.14774424146817	35.98615598993688	35.81090644428908	0	0
